<svg version="1.1" id="Layer_1" xmlns="http://www.w3.org/2000/svg" xmlns:xlink="http://www.w3.org/1999/xlink" x="0px" y="0px"
	 width="100%" viewBox="0 0 124 91" enable-background="new 0 0 124 91" xml:space="preserve">
<path fill="#010102" opacity="1.000000" stroke="none" 
	d="
M92.000000,92.000000 
	C61.333332,92.000000 31.166666,92.000000 1.000000,92.000000 
	C1.000000,61.666668 1.000000,31.333334 1.000000,1.000000 
	C42.333332,1.000000 83.666664,1.000000 125.000000,1.000000 
	C125.000000,31.333334 125.000000,61.666668 125.000000,92.000000 
	C114.166664,92.000000 103.333336,92.000000 92.000000,92.000000 
M93.132912,33.808380 
	C89.001709,35.087711 83.607376,34.975433 84.239227,41.834156 
	C87.630264,40.890888 90.814545,40.005131 94.181396,39.913422 
	C94.322533,40.965988 94.463669,42.018551 94.489372,43.990852 
	C94.489372,53.107018 94.489372,62.223186 94.489372,71.524460 
	C90.147202,71.524460 86.135506,71.524460 82.053276,71.524460 
	C84.433090,62.265522 82.623421,58.706425 74.044151,57.283615 
	C74.986656,60.459507 75.747398,63.224640 76.641327,65.946030 
	C77.058624,67.216370 78.451004,68.684738 78.108490,69.553764 
	C77.690163,70.615128 75.953201,71.707230 74.717354,71.793312 
	C70.922455,72.057632 67.094528,71.847801 63.605217,71.238586 
	C64.568878,70.064941 65.532547,68.891296 67.120316,66.957550 
	C62.149616,67.406296 61.084534,65.351547 61.121307,61.927639 
	C61.201550,54.455795 61.041035,46.981670 61.022526,39.508373 
	C60.998417,29.775799 61.016628,20.043116 61.016628,9.932911 
	C56.813137,11.010964 55.035286,13.018258 55.122425,17.050152 
	C55.463303,32.822987 55.464176,48.604355 55.944431,64.371796 
	C56.021008,66.885910 57.904129,69.345009 58.044891,71.946655 
	C54.040920,71.686310 50.036953,71.425972 46.794193,71.037231 
	C47.830730,70.592705 48.867268,70.148170 51.189632,69.152199 
	C42.759422,68.768547 42.106979,68.077278 42.078384,61.065445 
	C42.054596,55.232403 42.168930,49.393856 41.927166,43.569992 
	C41.864052,42.049595 40.701088,40.574856 39.708759,38.318584 
	C43.085079,33.270947 43.355255,30.054928 40.123238,27.000046 
	C38.464310,29.424635 37.012993,32.049599 35.072445,34.241417 
	C33.100456,36.468742 30.530874,38.155369 28.431324,40.284245 
	C25.637018,43.117580 22.651098,45.886097 20.457346,49.158348 
	C17.201563,54.014755 18.391911,61.496788 22.415146,65.278793 
	C26.485155,69.104767 28.387999,68.924149 35.257908,64.075043 
	C35.363655,64.000404 35.557240,64.050217 35.709831,64.041954 
	C35.080402,64.677917 34.450977,65.313889 33.821548,65.949852 
	C36.867790,67.909782 39.914028,69.869705 42.037361,71.970284 
	C33.747158,71.970284 25.456955,71.970284 16.710844,71.970284 
	C17.334908,74.237053 17.837282,76.061813 18.215416,77.435303 
	C46.061722,77.435303 73.408897,77.435303 100.844810,77.435303 
	C100.844810,65.577667 100.844810,54.293873 100.965622,42.175259 
	C100.965622,40.523590 100.965622,38.871925 100.965622,36.953144 
	C105.148315,35.981503 108.036011,33.956013 107.879517,28.989685 
	C105.501907,29.775120 103.423630,30.461672 101.103165,31.228230 
	C101.103165,27.223633 101.103165,23.771711 101.103165,20.282352 
	C110.511139,21.919453 112.928223,21.311312 115.472313,16.966040 
	C111.812828,15.772106 108.070961,14.658206 104.406479,13.330690 
	C98.897202,11.334872 94.331985,14.218594 94.084732,20.131998 
	C93.896950,24.623068 93.962852,29.124746 93.132912,33.808380 
M108.971947,41.090416 
	C108.861977,39.908787 108.752014,38.727161 108.642044,37.545532 
	C106.336685,39.681072 104.117142,42.047386 104.027832,44.491535 
	C103.635422,55.230652 103.858582,65.992264 103.858582,76.938492 
	C105.615578,76.938492 106.999268,76.938492 108.967995,76.938492 
	C108.967995,65.121948 108.967995,53.544750 108.971947,41.090416 
z"/>
<path fill="#F7F4E3" opacity="1.000000" stroke="none" 
	d="
M46.032982,71.165619 
	C50.036953,71.425972 54.040920,71.686310 58.926590,71.952133 
	C60.965336,71.912498 62.122387,71.867393 63.279438,71.822289 
	C67.094528,71.847801 70.922455,72.057632 74.717354,71.793312 
	C75.953201,71.707230 77.690163,70.615128 78.108490,69.553764 
	C78.451004,68.684738 77.058624,67.216370 76.641327,65.946030 
	C75.747398,63.224640 74.986656,60.459507 74.044151,57.283615 
	C82.623421,58.706425 84.433090,62.265522 82.053276,71.524460 
	C86.135506,71.524460 90.147202,71.524460 94.489372,71.524460 
	C94.489372,62.223186 94.489372,53.107018 94.933380,43.513374 
	C97.199867,43.027290 99.022339,43.018681 100.844810,43.010075 
	C100.844810,54.293873 100.844810,65.577667 100.844810,77.435303 
	C73.408897,77.435303 46.061722,77.435303 18.215416,77.435303 
	C17.837282,76.061813 17.334908,74.237053 16.710844,71.970284 
	C25.456955,71.970284 33.747158,71.970284 42.822853,71.945419 
	C44.416557,71.668915 45.224770,71.417267 46.032982,71.165619 
z"/>
<path fill="#994AF9" opacity="1.000000" stroke="none" 
	d="
M46.413589,71.101425 
	C45.224770,71.417267 44.416557,71.668915 43.284309,71.875099 
	C39.914028,69.869705 36.867790,67.909782 33.821548,65.949852 
	C34.450977,65.313889 35.080402,64.677917 35.709831,64.041954 
	C35.557240,64.050217 35.363655,64.000404 35.257908,64.075043 
	C28.387999,68.924149 26.485155,69.104767 22.415146,65.278793 
	C18.391911,61.496788 17.201563,54.014755 20.457346,49.158348 
	C22.651098,45.886097 25.637018,43.117580 28.431324,40.284245 
	C30.530874,38.155369 33.100456,36.468742 35.072445,34.241417 
	C37.012993,32.049599 38.464310,29.424635 40.123238,27.000046 
	C43.355255,30.054928 43.085079,33.270947 39.708759,38.318584 
	C40.701088,40.574856 41.864052,42.049595 41.927166,43.569992 
	C42.168930,49.393856 42.054596,55.232403 42.078384,61.065445 
	C42.106979,68.077278 42.759422,68.768547 51.189632,69.152199 
	C48.867268,70.148170 47.830730,70.592705 46.413589,71.101425 
M34.906399,55.978577 
	C34.906399,51.916798 34.906399,47.855015 34.906399,43.793236 
	C34.310356,43.585903 33.714317,43.378571 33.118275,43.171238 
	C30.856598,46.860641 28.215725,50.379787 26.457638,54.295303 
	C25.138489,57.233242 26.017008,60.652287 29.438757,61.700756 
	C33.143600,62.835972 34.209560,59.799740 34.906399,55.978577 
z"/>
<path fill="#9749F6" opacity="1.000000" stroke="none" 
	d="
M63.442329,71.530441 
	C62.122387,71.867393 60.965336,71.912498 59.380177,71.893570 
	C57.904129,69.345009 56.021008,66.885910 55.944431,64.371796 
	C55.464176,48.604355 55.463303,32.822987 55.122425,17.050152 
	C55.035286,13.018258 56.813137,11.010964 61.016628,9.932911 
	C61.016628,20.043116 60.998417,29.775799 61.022526,39.508373 
	C61.041035,46.981670 61.201550,54.455795 61.121307,61.927639 
	C61.084534,65.351547 62.149616,67.406296 67.120316,66.957550 
	C65.532547,68.891296 64.568878,70.064941 63.442329,71.530441 
z"/>
<path fill="#944EE9" opacity="1.000000" stroke="none" 
	d="
M100.905212,42.592667 
	C99.022339,43.018681 97.199867,43.027290 94.991104,43.053505 
	C94.463669,42.018551 94.322533,40.965988 94.278946,39.208588 
	C94.222961,36.876408 94.069420,35.249054 93.915878,33.621704 
	C93.962852,29.124746 93.896950,24.623068 94.084732,20.131998 
	C94.331985,14.218594 98.897202,11.334872 104.406479,13.330690 
	C108.070961,14.658206 111.812828,15.772106 115.472313,16.966040 
	C112.928223,21.311312 110.511139,21.919453 101.103165,20.282352 
	C101.103165,23.771711 101.103165,27.223633 101.103165,31.228230 
	C103.423630,30.461672 105.501907,29.775120 107.879517,28.989685 
	C108.036011,33.956013 105.148315,35.981503 100.965622,36.953144 
	C100.965622,38.871925 100.965622,40.523590 100.905212,42.592667 
z"/>
<path fill="#F4F1E1" opacity="1.000000" stroke="none" 
	d="
M108.969971,41.528984 
	C108.967995,53.544750 108.967995,65.121948 108.967995,76.938492 
	C106.999268,76.938492 105.615578,76.938492 103.858582,76.938492 
	C103.858582,65.992264 103.635422,55.230652 104.027832,44.491535 
	C104.117142,42.047386 106.336685,39.681072 108.642044,37.545532 
	C108.752014,38.727161 108.861977,39.908787 108.969971,41.528984 
z"/>
<path fill="#EDE8DE" opacity="1.000000" stroke="none" 
	d="
M93.524399,33.715042 
	C94.069420,35.249054 94.222961,36.876408 94.187668,38.811565 
	C90.814545,40.005131 87.630264,40.890888 84.239227,41.834156 
	C83.607376,34.975433 89.001709,35.087711 93.524399,33.715042 
z"/>
<path fill="#09040F" opacity="1.000000" stroke="none" 
	d="
M34.869293,56.411396 
	C34.209560,59.799740 33.143600,62.835972 29.438757,61.700756 
	C26.017008,60.652287 25.138489,57.233242 26.457638,54.295303 
	C28.215725,50.379787 30.856598,46.860641 33.118275,43.171238 
	C33.714317,43.378571 34.310356,43.585903 34.906399,43.793236 
	C34.906399,47.855015 34.906399,51.916798 34.869293,56.411396 
z"/>
</svg>